<svg id="Layer_1" data-name="Layer 1" xmlns="http://www.w3.org/2000/svg" xmlns:xlink="http://www.w3.org/1999/xlink" viewBox="0 0 194.47 280">
  <defs>
    <style>
      .cls-1 {
        fill: url(#linear-gradient);
      }
    </style>
    <linearGradient id="linear-gradient" x1="7.59" y1="270.37" x2="158.13" y2="9.63" gradientUnits="userSpaceOnUse">
      <stop offset="0" stop-color="#3070c7"/>
      <stop offset="1" stop-color="#e46dc4"/>
    </linearGradient>
  </defs>
  <title>listIconArtboard 1</title>
  <path class="cls-1" d="M158.77,270H7V62h33.7V239.94H158.77Zm-32.46-87v-8.26h8.14V183Zm0,34.25V186.91h8.14v30.36Zm37.47-22.77a96.67,96.67,0,0,0-10.54-1,8.71,8.71,0,0,0-3.88.55,1.88,1.88,0,0,0-.88,1.73,1.64,1.64,0,0,0,1.18,1.64,45.36,45.36,0,0,0,6.07,1.34q4.89.89,7,2.88t2.06,6.5q0,9.84-12.21,9.84a52.75,52.75,0,0,1-9.71-1.09l-2-.37.25-6.8a96.1,96.1,0,0,0,10.47,1,9.31,9.31,0,0,0,4-.58,1.86,1.86,0,0,0,1.07-1.73,1.81,1.81,0,0,0-1.13-1.7,29,29,0,0,0-5.83-1.33,15.06,15.06,0,0,1-7-2.67q-2.31-1.89-2.31-6.71c0-3.23,1.09-5.65,3.28-7.29a13.68,13.68,0,0,1,8.44-2.46,56.57,56.57,0,0,1,9.78,1.15l2,.37Zm23.68-.67H180v12.45a25.27,25.27,0,0,0,.09,2.58,2.19,2.19,0,0,0,.67,1.31,2.55,2.55,0,0,0,1.79.54l4.62-.12.36,6.5a31.36,31.36,0,0,1-6.19.91q-5.46,0-7.47-2.46t-2-9.08V193.83h-3.58v-6.92h3.58v-8.45H180v8.45h7.47ZM7,40.06V10H158.77V40.06h-58.6V218h-34V40.06ZM154,65.22q4.17,3.21,4.16,10.75T154,86.72q-4.16,3.21-11.69,3.22-16,0-16-14t16-14Q149.81,62,154,65.22ZM135.42,71.5q-2.19,1.25-2.19,4.47t2.19,4.46c1.46.83,3.74,1.25,6.86,1.25s5.39-.42,6.8-1.25,2.13-2.32,2.13-4.46-.71-3.64-2.13-4.47-3.68-1.24-6.8-1.24S136.88,70.67,135.42,71.5Zm34.13,50.2H127v-8.08h1.27a17.85,17.85,0,0,1-2-7.35q0-6.61,3.83-9.23t12.11-2.61q8.3,0,12.09,3.13t3.79,9.44a33.84,33.84,0,0,1-.6,5.41l-.25,1.15h12.27Zm-35.22-9,.18.85h16a33.24,33.24,0,0,0,.61-6q0-4.92-8.75-4.92-4.72,0-6.74,1.09a3.8,3.8,0,0,0-2,3.62A20.9,20.9,0,0,0,134.33,112.71ZM154,130.87q4.17,3.21,4.16,10.75T154,152.37q-4.16,3.21-11.69,3.21-16,0-16-14t16-14Q149.81,127.65,154,130.87Zm-18.55,6.28q-2.19,1.24-2.19,4.47t2.19,4.46c1.46.83,3.74,1.25,6.86,1.25s5.39-.42,6.8-1.25,2.13-2.32,2.13-4.46-.71-3.64-2.13-4.47-3.68-1.24-6.8-1.24S136.88,136.32,135.42,137.15Z"/>
</svg>
